HIERARCHY
ROOT Hips
{
 OFFSET 0.000000 0.000000 0.000000
 CHANNELS 6 Xposition Yposition Zposition Yrotation Xrotation Zrotation
 JOINT Chest
 {
  OFFSET 0.000000 9.585900 0.002600
  CHANNELS 3 Yrotation Xrotation Zrotation
  JOINT Chest2
  {
   OFFSET 0.000000 9.601200 -0.005300
   CHANNELS 3 Yrotation Xrotation Zrotation
   JOINT Chest3
   {
    OFFSET 0.000000 9.561800 0.000000
    CHANNELS 3 Yrotation Xrotation Zrotation
    JOINT Chest4
    {
     OFFSET 0.000000 9.552100 0.000000
     CHANNELS 3 Yrotation Xrotation Zrotation
     JOINT Neck
     {
      OFFSET 0.000000 14.453000 0.000000
      CHANNELS 3 Yrotation Xrotation Zrotation
      JOINT Head
      {
       OFFSET 0.000000 8.936500 -0.011300
       CHANNELS 3 Yrotation Xrotation Zrotation
       End Site
       {
        OFFSET 0.000000 17.073600 -0.006000
       }
      }
     }
     JOINT RightCollar
     {
      OFFSET -2.921100 9.558500 0.000000
      CHANNELS 3 Yrotation Xrotation Zrotation
      JOINT RightShoulder
      {
       OFFSET -13.519700 0.000000 0.000000
       CHANNELS 3 Yrotation Xrotation Zrotation
       JOINT RightElbow
       {
        OFFSET 0.000000 -29.696600 0.000000
        CHANNELS 3 Yrotation Xrotation Zrotation
        JOINT RightWrist
        {
         OFFSET 0.000000 -24.004700 0.000000
         CHANNELS 3 Yrotation Xrotation Zrotation
         End Site
         {
          OFFSET 0.000000 -17.728500 0.000000
         }
        }
       }
      }
     }
     JOINT LeftCollar
     {
      OFFSET 2.921100 9.558500 0.000000
      CHANNELS 3 Yrotation Xrotation Zrotation
      JOINT LeftShoulder
      {
       OFFSET 13.519700 0.000000 0.000000
       CHANNELS 3 Yrotation Xrotation Zrotation
       JOINT LeftElbow
       {
        OFFSET 0.000000 -29.696600 0.000000
        CHANNELS 3 Yrotation Xrotation Zrotation
        JOINT LeftWrist
        {
         OFFSET 0.000000 -24.004700 0.000000
         CHANNELS 3 Yrotation Xrotation Zrotation
         End Site
         {
          OFFSET 0.000000 -17.728500 0.000000
         }
        }
       }
      }
     }
    }
   }
  }
 }
 JOINT RightHip
 {
  OFFSET -7.771700 -0.012900 -0.001300
  CHANNELS 3 Yrotation Xrotation Zrotation
  JOINT RightKnee
  {
   OFFSET 0.000000 -40.869800 0.001200
   CHANNELS 3 Yrotation Xrotation Zrotation
   JOINT RightAnkle
   {
    OFFSET 0.000000 -39.717900 0.002100
    CHANNELS 3 Yrotation Xrotation Zrotation
    JOINT RightToe
    {
     OFFSET 0.000000 -4.965400 11.033500
     CHANNELS 3 Yrotation Xrotation Zrotation
     End Site
     {
      OFFSET 0.000000 -1.423100 5.872300
     }
    }
   }
  }
 }
 JOINT LeftHip
 {
  OFFSET 7.771700 -0.012900 -0.001300
  CHANNELS 3 Yrotation Xrotation Zrotation
  JOINT LeftKnee
  {
   OFFSET 0.000000 -40.869800 0.001200
   CHANNELS 3 Yrotation Xrotation Zrotation
   JOINT LeftAnkle
   {
    OFFSET 0.000000 -39.717900 0.002100
    CHANNELS 3 Yrotation Xrotation Zrotation
    JOINT LeftToe
    {
     OFFSET 0.000000 -4.965400 11.033500
     CHANNELS 3 Yrotation Xrotation Zrotation
     End Site
     {
      OFFSET 0.000000 -1.423100 5.872300
     }
    }
   }
  }
 }
}
MOTION
Frames: 8
Frame Time: 0.008333
-91.695893 62.118393 18.284691 173.256264 -49.075362 -0.901042 4.160979 26.175874 0.964721 0.596443 4.333010 0.135986 0.946485 6.861565 0.233961 3.169188 21.346377 1.162870 -3.852781 15.552036 1.001367 -7.533909 -6.709223 3.260067 7.375032 2.828588 4.136658 -6.765916 -10.013636 -13.659136 -94.889964 -44.028659 141.062351 -2.811730 -2.179232 14.686697 -8.310914 -0.062530 0.041948 -1.518887 -6.523578 16.154174 98.361662 -51.890513 -140.969894 7.608156 -5.427358 -15.505916 2.902356 -18.205645 -3.611507 -1.899277 60.644543 -5.039533 2.357313 -6.632224 9.873939 0.205765 -0.531109 0.102428 -3.469386 -14.407643 4.873705 30.188640 75.793367 32.428501 1.429241 -11.564766 -5.651263 0.273581 0.723972 0.118328
-91.695886 62.117301 18.280576 173.248113 -49.073823 -0.895918 4.151106 26.140493 0.951987 0.594443 4.318587 0.134893 0.960289 6.899763 0.240545 3.163660 21.328703 1.159325 -3.946916 15.523095 0.959152 -7.689731 -6.729110 3.216345 7.350188 2.798115 4.117499 -6.955327 -10.230316 -13.619678 -94.314662 -43.411487 141.001482 -3.355790 -2.239260 15.664786 -8.311904 -0.100512 0.068517 -1.364318 -6.764719 16.095588 97.922357 -51.314041 -141.114176 7.792148 -5.524257 -15.758945 2.906640 -18.209071 -3.610775 -1.894600 60.651185 -5.035302 2.355083 -6.635313 9.866730 0.198561 -0.528831 0.100861 -3.465452 -14.406471 4.877834 30.194565 75.794573 32.432392 1.427980 -11.572097 -5.653597 0.276545 0.729052 0.120933
-91.695967 62.115840 18.277029 173.245495 -49.072060 -0.893062 4.149193 26.124952 0.947041 0.593569 4.317924 0.134884 0.955679 6.882992 0.239095 3.163797 21.317009 1.158798 -3.986746 15.540827 0.937492 -7.871705 -6.763770 3.172412 7.333882 2.805441 4.102421 -7.108991 -10.470153 -13.582407 -93.642706 -42.755734 140.891451 -3.955367 -2.305917 16.624509 -8.314737 -0.118857 0.086468 -1.229140 -7.021894 16.046861 97.452215 -50.749472 -141.196449 7.989547 -5.641160 -15.987736 2.907956 -18.213350 -3.611160 -1.892204 60.659360 -5.032880 2.346716 -6.638132 9.858806 0.200752 -0.527803 0.103647 -3.463716 -14.407911 4.876993 30.210434 75.797518 32.450400 1.427458 -11.578236 -5.657539 0.282050 0.731761 0.122358
-91.695846 62.114120 18.274117 173.241340 -49.070535 -0.888175 4.151110 26.108642 0.941555 0.592606 4.328260 0.137720 0.951215 6.861503 0.235033 3.160244 21.307000 1.153900 -4.081993 15.525594 0.891502 -7.977192 -6.750197 3.143250 7.318963 2.815567 4.089398 -7.224403 -10.721680 -13.545117 -92.883384 -42.058295 140.743261 -4.572163 -2.371985 17.524734 -8.312696 -0.141774 0.103100 -1.121103 -7.286803 16.008003 96.918126 -50.204174 -141.193311 8.194147 -5.787299 -16.208173 2.911683 -18.221863 -3.612256 -1.889222 60.673158 -5.031078 2.341596 -6.631729 9.853767 0.202901 -0.538773 0.106671 -3.461257 -14.409128 4.873348 30.222866 75.800928 32.469176 1.424874 -11.585266 -5.665806 0.290445 0.734233 0.124629
-91.695151 62.112989 18.271266 173.246042 -49.075344 -0.890446 4.150590 26.095112 0.935261 0.590583 4.326543 0.141446 0.950150 6.853109 0.233335 3.158270 21.296766 1.148567 -4.168214 15.518376 0.849776 -8.071548 -6.721877 3.122568 7.298156 2.837107 4.080835 -7.315638 -10.987902 -13.508866 -92.070581 -41.333815 140.583173 -5.181468 -2.432729 18.337444 -8.312560 -0.156625 0.117615 -1.031703 -7.561168 15.975211 96.384318 -49.671790 -141.173134 8.430313 -5.930109 -16.414780 2.910214 -18.220628 -3.613030 -1.881812 60.682464 -5.024917 2.338694 -6.626555 9.853811 0.199672 -0.547706 0.104693 -3.467125 -14.403038 4.869837 30.233063 75.801845 32.485086 1.419972 -11.591213 -5.673425 0.290362 0.738533 0.126202
-91.694402 62.111738 18.269132 173.253173 -49.080571 -0.892259 4.151415 26.077677 0.927042 0.584975 4.325453 0.139779 0.956802 6.804588 0.219544 3.161501 21.273160 1.138321 -4.192470 15.597992 0.864911 -8.192912 -6.704427 3.096538 7.273531 2.917822 4.110963 -7.390902 -11.267939 -13.476760 -91.262306 -40.595400 140.433464 -5.763762 -2.488214 19.057039 -8.307114 -0.105937 0.144403 -0.960829 -7.846639 15.952353 95.901842 -49.145990 -141.182745 8.709335 -6.047771 -16.607650 2.909020 -18.217233 -3.616482 -1.877491 60.689350 -5.021059 2.339253 -6.626514 9.855919 0.200330 -0.548628 0.101141 -3.474566 -14.397562 4.865350 30.242155 75.801843 32.494550 1.424988 -11.593185 -5.678028 0.292772 0.741942 0.127199
-91.693502 62.110426 18.267773 173.254074 -49.086479 -0.887899 4.153265 26.071302 0.920285 0.588183 4.308752 0.134288 0.959417 6.789605 0.217976 3.166097 21.260024 1.132768 -4.223667 15.639405 0.867408 -8.234719 -6.681682 3.089124 7.239786 2.969623 4.120850 -7.450937 -11.559686 -13.449473 -90.552248 -39.865659 140.337305 -6.342318 -2.526645 19.695065 -8.305360 -0.094145 0.157091 -0.898592 -8.138130 15.931888 95.462314 -48.631649 -141.222892 9.015810 -6.148075 -16.783307 2.912741 -18.214878 -3.622951 -1.877148 60.696859 -5.017900 2.342208 -6.624044 9.856968 0.202967 -0.546324 0.096614 -3.476691 -14.390976 4.865741 30.228454 75.804128 32.479743 1.410723 -11.596751 -5.678612 0.291449 0.745879 0.130198
-91.692043 62.109888 18.266602 173.250744 -49.099443 -0.881393 4.159160 26.070901 0.915870 0.593231 4.288344 0.129511 0.958191 6.787476 0.218234 3.174319 21.232880 1.121432 -4.273151 15.672902 0.856562 -8.255787 -6.637709 3.093278 7.203274 3.035880 4.132128 -7.491590 -11.861368 -13.421014 -89.996212 -39.194716 140.309781 -6.948601 -2.549567 20.276479 -8.298397 -0.071281 0.168850 -0.845224 -8.435877 15.908526 95.052781 -48.144931 -141.286640 9.339285 -6.249816 -16.936959 2.916884 -18.204843 -3.626551 -1.873168 60.703861 -5.014236 2.345610 -6.625043 9.859052 0.195899 -0.548551 0.093252 -3.475402 -14.376449 4.863553 30.240449 75.803138 32.492687 1.398917 -11.601477 -5.680895 0.296111 0.749232 0.130741
